<svg class="fill-current" xmlns="http://www.w3.org/2000/svg" viewBox="0 0 715.95 278.2">
  <title>Mixy</title>
  <path d="M490.91 70.94c-14.5 5-10.86 12-7.45 18.76 4 7.94 8.18 15.79 13.29 25.64 7.54-10.07 14.16-18.57 20.37-27.35 3.7-5.23 1.72-9.5-3.93-11.57-4.75-1.73-9.82-2.59-14.57-5.65h155.1l.31 1.7c-2.95 1.06-6.77 1.32-8.63 3.37-2.65 2.9-6.24 8-5.3 10.65 8.43 24 17.76 47.65 28.1 74.77 9-26 17.3-48.55 24.22-71.51 1-3.41-3.38-10.34-7.13-12.82-4.6-3-11.16-3.12-16.72-5.9H716c-16.08 6.86-19.48 21.58-24.7 35.29-16.31 42.92-31.61 86.3-49.94 128.35-11.9 27.28-34.46 43.71-65.82 43.53a48.44 48.44 0 01-21.32-5.71c-9.16-4.77-12.48-13.74-11.32-24 1-8.78 5.91-14.8 14.32-17.08 9.65-2.63 19-1.45 25.87 6.64 4.83 5.72 8.73 12.25 12.9 18.52 4.93 7.42 11.28 8.65 18.39 3.77 14.41-9.89 23.09-24.07 31.07-41.61-11 0-19.88-.34-28.75.11-6.47.33-10.17-1.52-12.86-7.94-17-40.67-34.53-81.13-51.78-121.7-7-16.38-10.8-17.65-23.8-5-9.4 9.17-17.71 19.54-25.74 30-1.9 2.46-2.17 8-.73 10.93 13 26.36 26.47 52.51 40.08 78.56 2.18 4.16 5.8 7.56 9.57 12.34H443c14.05-6.84 8.81-15.13 4.05-23.56-5-8.79-9.68-17.74-15.74-28.87-7.83 12.65-15.23 23.36-21 34.91-1.16 2.33 3 9.3 6.46 11.44 4.67 2.93 11 3.28 16.26 6.3H286.55c1.16-7.52 3.31-15.34 3.41-23.19q.59-48.65 0-97.31c-.08-6.51-2.62-13-4.36-21l82.51-7.87c.28 5.92.66 10.3.67 14.69.05 39.22 0 78.45.07 117.68 0 14.18 4.91 18 17.95 12.49a44.68 44.68 0 0017.64-13.33c8.37-11.07 15.25-23.31 22.31-35.32a9.88 9.88 0 00.26-8.14q-18.92-36.67-38.49-73c-1.87-3.5-4.9-6.37-8.5-10.93zM188.56 216.36c.81-8.29 2.09-15.59 2.15-22.89.25-27.89.36-55.79-.18-83.68-.08-4.14-3.92-8.22-6-12.32-2.64 4.34-7.46 8.63-7.56 13-.68 29.76-.53 59.55-.19 89.32.06 5.3 2.28 10.57 3.63 16.39H96.46c.5-16 1.25-31.86 1.45-47.78.24-20 .38-40-.27-59.93-.13-3.74-4.19-7.35-6.43-11-2.74 3.54-7.78 7-7.85 10.62-.62 31.65-.51 63.32-.14 95 0 4.09 2.81 8.16 4.59 13H.63c1.2-6.56 3.45-13.4 3.53-20.26q.55-50.33 0-100.64C4.07 88.93 1.69 82.72 0 74.75l82.54-7.94v27.54c44.2-37.84 66.92-37.35 94.22 1.74 12.86-20.12 30.31-31 54.88-28.55 22.06 2.22 35.44 13.23 36.64 35.54 1.72 31.94.84 64 1.57 96 .13 5.69 2.66 11.32 4.15 17.25zM368.54 32.53c-.11 19.68-14 31.27-38.5 32-31 1-48.17-18.66-39.1-44.59C296.13 5.12 315.59-2.73 338.28.87c19.34 3.06 29.83 13.67 30.21 30.53.01.38.04.76.05 1.13z"/>
</svg>
